<svg class="MuiSvgIcon-root MuiSvgIcon-fontSizeMedium mui-vubbuv" focusable="false" aria-hidden="true" viewBox="0 0 24 24"><path d="M4.889 0.007c-0.734 0-1.333 0.599-1.333 1.333v1.333h-2.222c-0.755 0-1.333 0.618-1.333 1.339v18.642c0 0.72 0.578 1.339 1.333 1.339h21.333c0.755 0 1.333-0.618 1.333-1.339v-18.642c0-0.72-0.578-1.339-1.333-1.339h-2.222v-1.333c0-0.734-0.599-1.333-1.333-1.333s-1.333 0.599-1.333 1.333v1.333h-4.444v-1.333c0-0.734-0.599-1.333-1.333-1.333s-1.333 0.599-1.333 1.333v1.333h-4.444v-1.333c0-0.734-0.599-1.333-1.333-1.333zM4.889 0.896c0.245 0 0.444 0.2 0.444 0.444v3.556c0 0.245-0.2 0.444-0.444 0.444s-0.444-0.2-0.444-0.444v-3.556c0-0.245 0.2-0.444 0.444-0.444zM12 0.896c0.245 0 0.444 0.2 0.444 0.444v3.556c0 0.245-0.2 0.444-0.444 0.444s-0.444-0.2-0.444-0.444v-3.556c0-0.245 0.2-0.444 0.444-0.444zM19.111 0.896c0.245 0 0.444 0.2 0.444 0.444v3.556c0 0.245-0.2 0.444-0.444 0.444s-0.444-0.2-0.444-0.444v-3.556c0-0.245 0.2-0.444 0.444-0.444zM1.333 3.549h2.222v1.347c0 0.734 0.599 1.333 1.333 1.333s1.333-0.599 1.333-1.333v-1.347h4.444v1.347c0 0.734 0.599 1.333 1.333 1.333s1.333-0.599 1.333-1.333v-1.347h4.444v1.347c0 0.734 0.599 1.333 1.333 1.333s1.333-0.599 1.333-1.333v-1.347h2.222c0.268 0 0.444 0.205 0.444 0.464v3.106c-0.268 0-0.444 0.198-0.444 0.444v0.889c0 0.247 0.177 0.444 0.444 0.444v13.759c0 0.257-0.177 0.464-0.444 0.464h-21.333c-0.268 0-0.444-0.207-0.444-0.464v-13.759c0.268 0 0.444-0.198 0.444-0.444v-0.889c0-0.247-0.177-0.444-0.444-0.444v-3.106c0-0.259 0.177-0.464 0.444-0.464zM3.111 7.118c-0.268 0-0.444 0.198-0.444 0.444v0.889c0 0.245 0.177 0.444 0.444 0.444s0.444-0.198 0.444-0.444v-0.889c0-0.247-0.177-0.444-0.444-0.444zM5.333 7.118c-0.268 0-0.444 0.198-0.444 0.444v0.889c0 0.245 0.177 0.444 0.444 0.444s0.444-0.198 0.444-0.444v-0.889c0-0.247-0.177-0.444-0.444-0.444zM7.556 7.118c-0.268 0-0.444 0.198-0.444 0.444v0.889c0 0.245 0.177 0.444 0.444 0.444s0.444-0.198 0.444-0.444v-0.889c0-0.247-0.177-0.444-0.444-0.444zM9.778 7.118c-0.268 0-0.444 0.198-0.444 0.444v0.889c0 0.245 0.177 0.444 0.444 0.444s0.444-0.198 0.444-0.444v-0.889c0-0.247-0.177-0.444-0.444-0.444zM12 7.118c-0.268 0-0.444 0.198-0.444 0.444v0.889c0 0.245 0.177 0.444 0.444 0.444s0.444-0.198 0.444-0.444v-0.889c0-0.247-0.177-0.444-0.444-0.444zM14.222 7.118c-0.268 0-0.444 0.198-0.444 0.444v0.889c0 0.245 0.177 0.444 0.444 0.444s0.444-0.198 0.444-0.444v-0.889c0-0.247-0.177-0.444-0.444-0.444zM16.444 7.118c-0.268 0-0.444 0.198-0.444 0.444v0.889c0 0.245 0.177 0.444 0.444 0.444s0.444-0.198 0.444-0.444v-0.889c0-0.247-0.177-0.444-0.444-0.444zM18.667 7.118c-0.268 0-0.444 0.198-0.444 0.444v0.889c0 0.245 0.177 0.444 0.444 0.444s0.444-0.198 0.444-0.444v-0.889c0-0.247-0.177-0.444-0.444-0.444zM20.889 7.118c-0.268 0-0.444 0.198-0.444 0.444v0.889c0 0.245 0.177 0.444 0.444 0.444s0.444-0.198 0.444-0.444v-0.889c0-0.247-0.177-0.444-0.444-0.444zM7.556 11.562c-0.113 0-0.228 0.044-0.314 0.13l-1.464 1.464-0.575-0.575c-0.174-0.174-0.455-0.174-0.628 0s-0.174 0.455 0 0.628l0.889 0.889c0.087 0.087 0.2 0.13 0.314 0.13s0.228-0.044 0.314-0.13l1.778-1.778c0.174-0.174 0.174-0.455 0-0.628-0.087-0.087-0.201-0.13-0.314-0.13zM10.222 12.451c-0.245 0-0.444 0.2-0.444 0.444s0.2 0.444 0.444 0.444h1.778c0.245 0 0.444-0.2 0.444-0.444s-0.2-0.444-0.444-0.444h-1.778zM13.778 12.451c-0.245 0-0.444 0.2-0.444 0.444s0.2 0.444 0.444 0.444h5.333c0.245 0 0.444-0.2 0.444-0.444s-0.2-0.444-0.444-0.444h-5.333zM7.556 15.118c-0.113 0-0.228 0.044-0.314 0.13l-1.464 1.464-0.575-0.575c-0.174-0.174-0.455-0.174-0.628 0s-0.174 0.455 0 0.628l0.889 0.889c0.087 0.087 0.2 0.13 0.314 0.13s0.228-0.044 0.314-0.13l1.778-1.778c0.174-0.174 0.174-0.455 0-0.628-0.087-0.087-0.201-0.13-0.314-0.13zM10.222 16.007c-0.245 0-0.444 0.2-0.444 0.444s0.2 0.444 0.444 0.444h7.111c0.245 0 0.444-0.2 0.444-0.444s-0.2-0.444-0.444-0.444h-7.111zM2.222 20.451c-0.245 0-0.444 0.2-0.444 0.444s0.2 0.444 0.444 0.444h19.556c0.245 0 0.444-0.2 0.444-0.444s-0.2-0.444-0.444-0.444h-19.556z"></path></svg>